<?xml version="1.0" encoding="UTF-8" standalone="no"?>
<!-- Created with Inkscape (http://www.inkscape.org/) -->

<svg
   xmlns:dc="http://purl.org/dc/elements/1.1/"
   xmlns:cc="http://creativecommons.org/ns#"
   xmlns:rdf="http://www.w3.org/1999/02/22-rdf-syntax-ns#"
   xmlns:svg="http://www.w3.org/2000/svg"
   xmlns="http://www.w3.org/2000/svg"
   xmlns:sodipodi="http://sodipodi.sourceforge.net/DTD/sodipodi-0.dtd"
   xmlns:inkscape="http://www.inkscape.org/namespaces/inkscape"
   width="56.444443mm"
   height="56.444443mm"
   viewBox="0 0 199.99999 199.99999"
   id="svg2"
   version="1.1"
   inkscape:version="0.91 r13725"
   sodipodi:docname="example.svg">
  <defs
     id="defs4" />
  <sodipodi:namedview
     id="base"
     pagecolor="#ffffff"
     bordercolor="#666666"
     borderopacity="1.0"
     inkscape:pageopacity="0.0"
     inkscape:pageshadow="2"
     inkscape:zoom="1.4"
     inkscape:cx="83.912802"
     inkscape:cy="64.491732"
     inkscape:document-units="px"
     inkscape:current-layer="layer1"
     showgrid="false"
     fit-margin-top="0"
     fit-margin-left="0"
     fit-margin-right="0"
     fit-margin-bottom="0"
     inkscape:window-width="1920"
     inkscape:window-height="1017"
     inkscape:window-x="-8"
     inkscape:window-y="-8"
     inkscape:window-maximized="1" />
  <metadata
     id="metadata7">
    <rdf:RDF>
      <cc:Work
         rdf:about="">
        <dc:format>image/svg+xml</dc:format>
        <dc:type
           rdf:resource="http://purl.org/dc/dcmitype/StillImage" />
        <dc:title></dc:title>
      </cc:Work>
    </rdf:RDF>
  </metadata>
  <g
     inkscape:label="Ebene 1"
     inkscape:groupmode="layer"
     id="layer1"
     transform="translate(0,-852.36218)">
    <g
       id="g3371">
      <rect
         y="852.36218"
         x="0"
         height="200"
         width="200"
         id="rect3336"
         style="fill:#666666;fill-opacity:1;stroke:none" />
      <g
         id="flowRoot3338"
         style="font-style:normal;font-weight:normal;font-size:40px;line-height:125%;font-family:sans-serif;text-align:center;letter-spacing:0px;word-spacing:0px;text-anchor:middle;fill:#000000;fill-opacity:1;stroke:none;stroke-width:1px;stroke-linecap:butt;stroke-linejoin:miter;stroke-opacity:1">
        <path
           inkscape:connector-curvature="0"
           id="path3347"
           style="font-style:normal;font-variant:normal;font-weight:100;font-stretch:normal;font-family:'Akzidenz Grotesk CE Light';-inkscape-font-specification:'Akzidenz Grotesk CE Light, Thin';text-align:center;text-anchor:middle;fill:#ffffff"
           d="m 24.898828,942.72948 0,-28.48 20.16,0 0,4.96 -14.8,0 0,6.48 13.6,0 0,4.72 -13.6,0 0,7.36 15.84,0 0,4.96 -21.2,0 z" />
        <path
           inkscape:connector-curvature="0"
           id="path3349"
           style="font-style:normal;font-variant:normal;font-weight:100;font-stretch:normal;font-family:'Akzidenz Grotesk CE Light';-inkscape-font-specification:'Akzidenz Grotesk CE Light, Thin';text-align:center;text-anchor:middle;fill:#ffffff"
           d="m 46.473828,942.72948 7,-10.92 -6.08,-9.32 5.68,0 3.24,4.96 3.24,-4.96 5.68,0 -6.08,9.32 7,10.92 -5.84,0 -4,-6.4 -4,6.4 -5.84,0 z" />
        <path
           inkscape:connector-curvature="0"
           id="path3351"
           style="font-style:normal;font-variant:normal;font-weight:100;font-stretch:normal;font-family:'Akzidenz Grotesk CE Light';-inkscape-font-specification:'Akzidenz Grotesk CE Light, Thin';text-align:center;text-anchor:middle;fill:#ffffff"
           d="m 85.290703,928.64948 0,10.68 q 0,1.36 0.28,2.32 0.16,0.6 0.48,1.08 l -5.16,0 q -0.24,-0.36 -0.36,-0.88 -0.12,-0.52 -0.12,-0.96 -1.44,1.16 -3.08,1.76 -1.64,0.56 -3.52,0.56 -3,0 -4.96,-1.72 -1.92,-1.72 -1.92,-4.64 0,-2.68 1.96,-4.4 1.6,-1.4 4.2,-1.92 l 2.04,-0.4 q 1.4,-0.28 2.88,-0.56 1.52,-0.32 2.4,-0.64 l 0,-0.6 q 0,-1.4 -1.04,-1.96 -1,-0.6 -2.8,-0.6 -2.08,0 -2.92,0.68 -0.84,0.68 -0.84,2.36 l -4.88,-0.2 q 0,-3.36 2.64,-5.08 2.32,-1.52 6,-1.52 3.96,0 6,1.16 2.72,1.56 2.72,5.48 z m -4.88,6.84 0,-2.88 q -0.92,0.48 -2.32,0.72 l -2.68,0.56 q -2.16,0.4 -2.76,1.04 -0.6,0.68 -0.6,1.76 0,1.12 0.88,1.84 0.92,0.68 2.28,0.68 1.96,0 3.44,-0.88 1.76,-1.04 1.76,-2.84 z" />
        <path
           inkscape:connector-curvature="0"
           id="path3353"
           style="font-style:normal;font-variant:normal;font-weight:100;font-stretch:normal;font-family:'Akzidenz Grotesk CE Light';-inkscape-font-specification:'Akzidenz Grotesk CE Light, Thin';text-align:center;text-anchor:middle;fill:#ffffff"
           d="m 89.855078,942.72948 0,-20.24 4.88,0 0,2 q 1.16,-1.2 2.56,-1.84 1.4,-0.64 3.280002,-0.64 2,0 3.6,0.76 1.64,0.72 2.36,2.28 1.16,-1.52 2.72,-2.28 1.56,-0.76 3.52,-0.76 3.4,0 5.24,1.64 1.84,1.6 1.84,4.84 l 0,14.24 -4.88,0 0,-12.28 q 0,-1.8 -0.84,-2.88 -0.84,-1.08 -2.48,-1.08 -1.96,0 -3.16,1.64 -1.2,1.64 -1.2,3.92 l 0,10.68 -4.88,0 0,-12.28 q 0,-1.84 -0.84,-2.88 -0.84,-1.08 -2.560002,-1.08 -1.92,0 -3.12,1.64 -1.16,1.64 -1.16,3.92 l 0,10.68 -4.88,0 z" />
        <path
           inkscape:connector-curvature="0"
           id="path3355"
           style="font-style:normal;font-variant:normal;font-weight:100;font-stretch:normal;font-family:'Akzidenz Grotesk CE Light';-inkscape-font-specification:'Akzidenz Grotesk CE Light, Thin';text-align:center;text-anchor:middle;fill:#ffffff"
           d="m 124.54258,949.20948 0,-26.72 4.88,0 0,1.72 q 1.2,-1.04 2.64,-1.6 1.48,-0.6 3.2,-0.6 3.8,0 6.24,3.08 2.48,3.04 2.48,7.52 0,4.44 -2.48,7.52 -2.48,3.08 -6.32,3.08 -2.04,0 -3.4,-0.6 -1.32,-0.64 -2.36,-1.84 l 0,8.44 -4.88,0 z m 9.52,-10.48 q 2.52,0 3.76,-1.96 1.04,-1.64 1.04,-4.16 0,-2.6 -1,-4.16 -1.24,-1.96 -3.8,-1.96 -2.52,0 -3.76,1.96 -1.04,1.64 -1.04,4.16 0,2.6 1,4.16 1.24,1.96 3.8,1.96 z" />
        <path
           inkscape:connector-curvature="0"
           id="path3357"
           style="font-style:normal;font-variant:normal;font-weight:100;font-stretch:normal;font-family:'Akzidenz Grotesk CE Light';-inkscape-font-specification:'Akzidenz Grotesk CE Light, Thin';text-align:center;text-anchor:middle;fill:#ffffff"
           d="m 147.51133,942.72948 0,-28.48 4.88,0 0,28.48 -4.88,0 z" />
        <path
           inkscape:connector-curvature="0"
           id="path3359"
           style="font-style:normal;font-variant:normal;font-weight:100;font-stretch:normal;font-family:'Akzidenz Grotesk CE Light';-inkscape-font-specification:'Akzidenz Grotesk CE Light, Thin';text-align:center;text-anchor:middle;fill:#ffffff"
           d="m 175.99883,933.76948 -14.96,0 q 0,2.2 1.56,3.6 1.56,1.36 3.68,1.36 1.92,0 3.36,-0.68 1.44,-0.72 2.48,-2.2 l 4.12,2.4 q -1.4,2.12 -3.48,3.36 -2.68,1.6 -6.48,1.6 -4.8,0 -7.6,-2.96 -2.76,-3 -2.76,-7.64 0,-4.64 2.76,-7.6 2.8,-3 7.6,-3 4.92,0 7.4,3.16 2.32,2.96 2.32,8.6 z m -14.96,-3.76 9.84,0 q 0,-1.2 -1.04,-2.4 -1.36,-1.6 -3.56,-1.6 -2.04,0 -3.44,1.12 -1.36,1.12 -1.8,2.88 z" />
        <path
           inkscape:connector-curvature="0"
           id="path3361"
           style="font-style:normal;font-variant:normal;font-weight:100;font-stretch:normal;font-family:'Akzidenz Grotesk CE Light';-inkscape-font-specification:'Akzidenz Grotesk CE Light, Thin';text-align:center;text-anchor:middle;fill:#ffffff"
           d="m 46.272578,992.72948 0,-28.48 5.36,0 0,28.48 -5.36,0 z" />
        <path
           inkscape:connector-curvature="0"
           id="path3363"
           style="font-style:normal;font-variant:normal;font-weight:100;font-stretch:normal;font-family:'Akzidenz Grotesk CE Light';-inkscape-font-specification:'Akzidenz Grotesk CE Light, Thin';text-align:center;text-anchor:middle;fill:#ffffff"
           d="m 56.964453,992.72948 0,-20.24 4.88,0 0,2 q 1.16,-1.2 2.56,-1.84 1.4,-0.64 3.28,-0.64 2,0 3.6,0.76 1.64,0.72 2.36,2.28 1.16,-1.52 2.72,-2.28 1.56,-0.76 3.52,-0.76 3.4,0 5.24,1.64 1.84,1.6 1.84,4.84 l 0,14.24 -4.88,0 0,-12.28 q 0,-1.8 -0.84,-2.88 -0.84,-1.08 -2.48,-1.08 -1.96,0 -3.16,1.64 -1.2,1.64 -1.2,3.92 l 0,10.68 -4.88,0 0,-12.28 q 0,-1.84 -0.84,-2.88 -0.84,-1.08 -2.56,-1.08 -1.92,0 -3.12,1.64 -1.16,1.64 -1.16,3.92 l 0,10.68 -4.88,0 z" />
        <path
           inkscape:connector-curvature="0"
           id="path3365"
           style="font-style:normal;font-variant:normal;font-weight:100;font-stretch:normal;font-family:'Akzidenz Grotesk CE Light';-inkscape-font-specification:'Akzidenz Grotesk CE Light, Thin';text-align:center;text-anchor:middle;fill:#ffffff"
           d="m 108.57195,978.64948 0,10.68 q 0,1.36 0.28,2.32 0.16,0.6 0.48,1.08 l -5.16,0 q -0.24,-0.36 -0.36,-0.88 -0.12,-0.52 -0.12,-0.96 -1.44,1.16 -3.08,1.76 -1.639997,0.56 -3.519997,0.56 -3,0 -4.96,-1.72 -1.92,-1.72 -1.92,-4.64 0,-2.68 1.96,-4.4 1.6,-1.4 4.2,-1.92 l 2.04,-0.4 q 1.4,-0.28 2.879997,-0.56 1.52,-0.32 2.4,-0.64 l 0,-0.6 q 0,-1.4 -1.04,-1.96 -1,-0.6 -2.799997,-0.6 -2.08,0 -2.92,0.68 -0.84,0.68 -0.84,2.36 l -4.88,-0.2 q 0,-3.36 2.64,-5.08 2.32,-1.52 6,-1.52 3.959997,0 5.999997,1.16 2.72,1.56 2.72,5.48 z m -4.88,6.84 0,-2.88 q -0.92,0.48 -2.32,0.72 l -2.679997,0.56 q -2.16,0.4 -2.76,1.04 -0.6,0.68 -0.6,1.76 0,1.12 0.88,1.84 0.92,0.68 2.28,0.68 1.959997,0 3.439997,-0.88 1.76,-1.04 1.76,-2.84 z" />
        <path
           inkscape:connector-curvature="0"
           id="path3367"
           style="font-style:normal;font-variant:normal;font-weight:100;font-stretch:normal;font-family:'Akzidenz Grotesk CE Light';-inkscape-font-specification:'Akzidenz Grotesk CE Light, Thin';text-align:center;text-anchor:middle;fill:#ffffff"
           d="m 131.29633,972.48948 0,19.8 q 0,4.04 -2.92,5.72 -2.48,1.44 -7.6,1.44 -4.32,0 -6.52,-2.2 -1.72,-1.72 -1.72,-4.08 l 5.12,0 q 0.28,1.12 1.32,1.8 1.04,0.72 2.84,0.72 2.32,0 3.44,-1.08 1.16,-1.04 1.16,-3 l 0,-2.16 q -1.08,1.16 -2.8,1.76 -1.4,0.48 -2.96,0.48 -3.84,0 -6.32,-2.68 -2.48,-2.68 -2.48,-7.16 0,-4.52 2.44,-7.16 2.48,-2.68 6.36,-2.68 2.04,0 3.48,0.68 1.2,0.56 2.2,1.76 l 0.08,-1.96 4.88,0 z m -4.72,9.36 q 0,-2.04 -1,-3.48 -1.28,-1.88 -3.8,-1.88 -2.48,0 -3.76,1.84 -1.04,1.48 -1.04,3.52 0,2.04 1,3.48 1.28,1.88 3.8,1.88 2.48,0 3.76,-1.84 1.04,-1.48 1.04,-3.52 z" />
        <path
           inkscape:connector-curvature="0"
           id="path3369"
           style="font-style:normal;font-variant:normal;font-weight:100;font-stretch:normal;font-family:'Akzidenz Grotesk CE Light';-inkscape-font-specification:'Akzidenz Grotesk CE Light, Thin';text-align:center;text-anchor:middle;fill:#ffffff"
           d="m 154.90508,983.76948 -14.96,0 q 0,2.2 1.56,3.6 1.56,1.36 3.68,1.36 1.92,0 3.36,-0.68 1.44,-0.72 2.48,-2.2 l 4.12,2.4 q -1.4,2.12 -3.48,3.36 -2.68,1.6 -6.48,1.6 -4.8,0 -7.6,-2.96 -2.76,-3 -2.76,-7.64 0,-4.64 2.76,-7.6 2.8,-3 7.6,-3 4.92,0 7.4,3.16 2.32,2.96 2.32,8.6 z m -14.96,-3.76 9.84,0 q 0,-1.2 -1.04,-2.4 -1.36,-1.6 -3.56,-1.6 -2.04,0 -3.44,1.12 -1.36,1.12 -1.8,2.88 z" />
      </g>
    </g>
  </g>
</svg>
